<svg xmlns="http://www.w3.org/2000/svg" width="512" height="512"><path d="M67.156 195.112c-1.655-2.037-45.143-110.682-45.162-112.83-.004-.698-.315-1.748-.686-2.336-1.146-1.814.602-2.176 10.599-2.185l9.538-.011 2.689 6.711c8.364 20.871 22.98 59.123 24.693 64.622 1.095 3.517 2.212 6.126 2.481 5.804.268-.322 1.57-3.526 2.889-7.121 1.32-3.591 4.781-11.752 7.688-18.139 23.732-52.086 24.701-54.055 26.568-54.055.333 0 1.876 2.527 3.43 5.624 6.376 12.695 29.092 61.944 31.3 67.856 1.308 3.502 2.51 6.232 2.675 6.068.164-.166 1.944-5.152 3.954-11.083 3.45-10.173 22.786-60.202 24.779-64.112.908-1.779 1.107-1.819 10.512-2.017 9.292-.194 9.588-.156 9.588 1.307 0 1.279-39.391 99.699-44.768 111.855-1.758 3.975-3.231 5.41-4.65 4.532-1.024-.631-3.488-5.746-15.711-32.6-15.265-33.543-17.047-37.593-19.379-44.064-2.086-5.796-2.773-6.353-3.622-2.924-.705 2.849-6.792 17.169-11.646 27.398-2.272 4.787-7.361 15.644-11.306 24.128-13.254 28.495-14.29 30.228-16.453 27.572zm189.936-1.313c-11.792-3.061-23.839-10.502-31.391-19.387-4.377-5.148-9.485-15.347-11.533-23.016-2.1-7.875-2.272-22.296-.356-30.111 1.853-7.565 7.558-19.019 12.349-24.79 16.064-19.357 42.79-26.463 66.773-17.761 16.95 6.151 29.546 20.878 34.54 40.374 1.787 6.978 2.951 19.13 2.069 21.586l-.589 1.633h-47.86c-26.383 0-48.039.284-48.254.634-.658 1.062 1.662 8.867 4.287 14.435 3.505 7.429 8.643 12.63 15.946 16.144 7.825 3.763 16.151 5.394 24.679 4.836 10.868-.717 19.439-3.937 28.284-10.629 2.651-2.007 5.058-3.65 5.346-3.65 1.075 0 11.009 10.605 11.009 11.752 0 .658-1.713 2.65-3.811 4.43-7.891 6.694-16.282 11.006-26.543 13.628-7.745 1.978-27.141 1.918-34.945-.108zm51.218-68.436c.593-1.545-1.746-9.655-4.167-14.452-9.963-19.733-40.805-24.11-58.328-8.275-4.203 3.799-7.802 9.485-10.222 16.149-3.07 8.462-7.178 7.58 35.306 7.58 30.762-.002 37.09-.171 37.411-1.002zm102.962 68.589c-9.499-2.842-16.744-7.624-23.868-15.761-3.738-4.269-4.903-5.216-5.264-4.279-.256.663-.246 4.775.021 9.137.674 11.101.948 10.793-9.584 10.793-5.673 0-8.828-.295-9.407-.872-1.266-1.263-1.266-187.093 0-188.357.576-.578 3.709-.871 9.287-.871s8.71.294 9.286.871c.66.66.872 12.045.872 46.798 0 25.263.139 45.928.312 45.928s3.522-3.244 7.447-7.208c5.821-5.883 8.135-7.683 12.566-9.773 9.953-4.693 20.096-6.312 30.082-4.791 18.458 2.81 32.688 13.066 41.353 29.807 5.641 10.891 7.991 23.438 6.816 36.387-.818 9.041-2.354 14.388-6.607 23.062-3.301 6.725-4.551 8.426-10.669 14.511-7.561 7.522-12.312 10.686-20.475 13.632-4.764 1.722-6.496 1.939-16.569 2.103-9.1.15-12.074-.066-15.599-1.117zm21.017-17.911c12.059-3.141 20.589-11.543 25.355-24.977 2.023-5.696 2.201-6.962 2.191-15.633-.01-8.4-.228-10.058-2.002-15.151-4.999-14.344-13.985-22.562-27.896-25.51-9.144-1.938-18.479-.766-26.919 3.379-14.847 7.292-23.566 27.251-20.159 46.146 2.856 15.83 13.458 27.76 28.195 31.73 5.163 1.387 15.939 1.396 21.235.016zm-303.754 327.199c-65.745-14.155-107.744-67.184-107.533-135.785.074-23.496 4.316-42.352 14.026-62.294 16.031-32.931 43.964-56.738 79.991-68.184 14.764-4.69 23.094-5.8 42.994-5.745 19.535.06 31.562 1.918 47.324 7.311 45.135 15.446 78.979 55.696 86.772 103.191 3.688 22.455 3.092 41.551-1.963 62.694-11.405 47.749-48.017 84.582-96.9 97.481-9.02 2.382-12.299 2.685-32.662 2.998-19.539.309-23.922.08-32.049-1.667zm51.874-16.047c35.706-6.297 65.844-28.866 82.275-61.612 4.857-9.69 9.783-24.669 11.666-35.489 1.902-10.943 1.659-34.51-.465-45.483-4.932-25.481-16.635-47.875-33.801-64.674-15.999-15.658-38.089-26.751-61.5-30.878-10.908-1.926-33.462-1.681-44.561.479-41.219 8.021-74.701 37.501-88.129 77.578-4.33 12.922-6.194 25.221-6.194 40.862 0 22.141 4.094 39.656 13.786 58.952 22.954 45.694 73.48 69.685 126.923 60.265zm192.613 15.995c-18.712-4.888-31.512-11.965-43.46-24.035-7.846-7.926-18.275-22.687-18.275-25.858 0-1.579 1.568-2.876 6.063-5.023 3.333-1.59 6.561-2.576 7.184-2.199.619.388 3.262 3.996 5.862 8.024 8.896 13.748 22.428 25.535 34.93 30.431 35.816 14.027 78.573 2.849 91.544-23.935 7.716-15.936 7.229-36.393-1.247-52.319-5.821-10.934-21.218-23.369-40.8-32.951-5.166-2.527-18.888-9.24-30.485-14.92-31.122-15.229-43.688-25.617-51.166-42.327-11.405-25.447-3.852-58.087 16.958-73.368 11.988-8.799 23.733-12.785 40.383-13.697 21.238-1.166 41.188 5.567 55.358 18.685 7.751 7.183 15.625 16.817 15.625 19.133 0 1.501-9.386 9.129-11.232 9.129-.549 0-3.076-2.708-5.622-6.015-13.351-17.353-26.339-24.337-47.443-25.521-22.851-1.287-40.959 8.024-48.421 24.899-6.964 15.753-4.519 36.763 5.804 49.821 7.554 9.554 14.83 13.808 65.761 38.413 17.21 8.314 28.121 15.541 37.555 24.876 8.657 8.562 13.743 16.611 17.581 27.787 3.674 10.702 4.629 29.97 2.04 41.038-5.77 24.633-24.641 42.692-51.825 49.588-8.461 2.145-12.016 2.46-27.339 2.412-14.044-.04-19.178-.464-25.333-2.068zm143.251-364.005c-.01-1.49.077-2.154.182-1.476.103.679.104 1.898.008 2.709-.102.812-.184.257-.187-1.233h-.003z"/></svg>