<svg xmlns="http://www.w3.org/2000/svg" width="512" height="512" viewBox="-63.5 496.5 512 512" enable-background="new -63.5 496.5 512 512"><path d="M60.452 667.674h268.675v218.939c0 13.008-10.546 23.553-23.536 23.553h-26.911v66.678c0 16.934-13.506 30.656-30.178 30.656-16.714 0-30.2-13.723-30.2-30.656v-66.678h-47.002v66.678c0 16.934-13.533 30.656-30.204 30.656-16.668 0-30.199-13.723-30.199-30.656v-66.678h-26.887c-12.994 0-23.559-10.545-23.559-23.553l.001-218.939zm-52.651-1.787c-16.842 0-30.483 13.854-30.483 30.956v120.984c0 17.083 13.642 30.962 30.483 30.962 16.845 0 30.483-13.879 30.483-30.962v-120.984c.001-17.103-13.638-30.956-30.483-30.956zm321.326-20.277h-268.675c3.316-38.277 28.146-71.215 63.89-90.288l-25.545-37.508c-3.445-5.059-2.146-11.961 2.923-15.403 5.062-3.445 11.95-2.135 15.412 2.919l27.842 40.909c15.437-5.337 32.193-8.402 49.816-8.402 17.645 0 34.401 3.065 49.837 8.41l27.842-40.902c3.42-5.067 10.33-6.378 15.392-2.934 5.067 3.443 6.369 10.346 2.923 15.403l-25.524 37.511c35.74 19.058 60.552 51.998 63.867 90.285zm-176.144-52.008c0-8.209-6.647-14.868-14.853-14.868-8.226 0-14.873 6.659-14.873 14.868 0 8.204 6.668 14.858 14.873 14.858s14.853-6.654 14.853-14.858zm115.221 0c0-8.209-6.671-14.868-14.874-14.868-8.226 0-14.853 6.659-14.853 14.868 0 8.204 6.627 14.858 14.853 14.858 8.205 0 14.874-6.654 14.874-14.858zm113.595 72.242c-16.824 0-30.505 13.875-30.505 30.978v121.029c0 17.103 13.681 30.981 30.505 30.981 16.845 0 30.46-13.878 30.46-30.981v-121.03c.001-17.102-13.615-30.977-30.46-30.977z"/></svg>