<svg xmlns="http://www.w3.org/2000/svg" width="512" height="512"><g><path d="M165.485 126.173c0-16.848-10.308-38.173-53.662-38.173h-66.769l-18.976 87.801h69.593c54.338 0 69.814-25.718 69.814-49.628z"/><path d="M345.316 126.173c0-16.848-10.295-38.173-53.637-38.173h-66.768l-18.963 87.787h69.553c54.366.014 69.815-25.704 69.815-49.614z"/><path d="M141.406 258.311c0-16.84-10.321-38.219-53.675-38.219h-66.755l-18.976 87.853h69.566c54.352 0 69.84-25.789 69.84-49.634z"/><path d="M321.24 258.311c0-16.84-10.336-38.219-53.65-38.219h-66.755l-19.002 87.854h69.592c54.364-.001 69.815-25.79 69.815-49.635z"/><path d="M509.374 204.72c0-16.854-10.321-38.22-53.636-38.22h-66.756l-19.016 87.841h69.579c54.368 0 69.829-25.724 69.829-49.621z"/><path d="M483.448 342.304c0-16.859-10.31-38.172-53.649-38.172h-66.755l-18.976 87.806h69.565c54.353 0 69.815-25.796 69.815-49.634z"/><path d="M295.391 395.91c0-16.936-10.283-38.293-53.598-38.293h-66.807l-18.977 87.842h69.566c54.366.026 69.816-25.707 69.816-49.549z"/></g></svg>