<svg xmlns="http://www.w3.org/2000/svg" width="512" height="512"><path d="M249.364 126.652c-5.392-29.39 8.506-59.636 25.241-80.02 18.445-22.489 50.097-39.736 77.148-41.632 4.569 30.813-8.007 60.836-24.56 82.072-17.756 22.814-48.287 40.506-77.829 39.58zm158.664 106.496c8.37-23.352 24.951-44.362 50.675-58.538-25.994-32.439-62.492-51.272-96.935-51.272-45.569 0-64.837 21.711-96.489 21.711-32.604 0-57.34-21.711-96.812-21.711-38.706 0-79.907 23.591-106.037 63.882-9.607 14.893-16.115 33.394-19.665 54.002-9.849 57.811 4.863 133.108 48.749 199.969 21.337 32.443 49.779 68.986 86.935 69.305 33.099.323 42.489-21.162 87.296-21.384 44.874-.255 53.378 21.606 86.432 21.291 37.166-.313 67.176-40.756 88.513-73.194 15.194-23.279 20.939-35.037 32.754-61.356-60.074-22.654-84.78-88.851-65.416-142.705z"/></svg>