<svg xmlns="http://www.w3.org/2000/svg" width="512" height="512"><g transform="translate(0 -817.362)"><path d="M273.863 1006.946l-.324 313.597-79.578-27.328-.56-366.98 101.576 28.354c65.021 18.451 104.809 54.317 104.163 117.174-.647 73.104-34.613 101.469-92.149 74.733v-135.543c0-19.996-33.129-34.597-33.129-4.008z"/><path d="M177.174 1149.223l-11.966 3.856-115.829 41.548c-24.383 11.18-44.75 18.413-44.879 36.632.611 23.059 36.75 34.28 89.666 43.118 28.198 5.652 57.008 1.864 81.674-3.363l.02-43.448s-45.724 17.77-56.604 19.25l-22.001-.121c-16.333-.091-23.938-10.552-7.669-16.162l87.575-33.141.015-48.167v-.003h-.002z"/><path d="M382.996 1168.798c-30.409-.1-72.523 8.187-93.398 17.898v49.523l55.049-20.13 43.604-13.863c45.412-7.476 63.468 8.38 19.235 21.635l-117.887 43.136-.144 48.023 172.239-61.966c19.007-6.627 45.74-20.01 45.804-36.459-4.611-25.465-42.919-40.326-102.409-46.627-5.336-.549-10.699-.892-16.023-1.052-2.028-.06-4.045-.113-6.072-.12l.002.002z"/></g></svg>