<svg xmlns="http://www.w3.org/2000/svg" width="512" height="512"><path fill-rule="evenodd" clip-rule="evenodd" d="M510.598.5c-54.386 7.566-105.76 14.713-154.032 21.439-45.623 6.35-80.019 12.388-121.005 18.094v205.737c40.986-.241 75.382-.495 121.055-.77 48.272-.283 99.597-.582 153.982-.907v-243.59300000000002zm-298.666 42.829c-37.784 5.265-82.729 10.271-116.938 15.04-32.644 4.544-63.808 8.892-93.592 13.048v175.687c29.733-.174 60.947-.361 93.592-.557 34.208-.2 79.104-.416 116.938-.641v-202.577zm-210.53 221.059v175.586c29.733 4.184 60.897 8.566 93.538 13.149 34.216 4.807 79.157 9.859 116.991 15.174v-202.454c-37.834-.275-82.729-.537-116.938-.782-32.693-.232-63.857-.457-93.591-.673zm234.159 207.232c40.986 5.759 75.382 11.839 121.055 18.256 48.272 6.782 99.597 13.993 153.982 21.624v-243.437c-54.386-.391-105.71-.769-153.982-1.114-45.673-.328-80.068-.641-121.055-.939v205.61z"/></svg>