<?xml version="1.0" encoding="utf-8"?>
<!-- Generator: Adobe Illustrator 16.0.4, SVG Export Plug-In . SVG Version: 6.00 Build 0)  -->
<!DOCTYPE svg PUBLIC "-//W3C//DTD SVG 1.1//EN" "http://www.w3.org/Graphics/SVG/1.1/DTD/svg11.dtd">
<svg version="1.1" id="Layer_1" xmlns="http://www.w3.org/2000/svg" xmlns:xlink="http://www.w3.org/1999/xlink" x="0px" y="0px"
	 width="512px" height="512px" viewBox="-63.5 496.5 512 512" enable-background="new -63.5 496.5 512 512" xml:space="preserve">
<g id="b75708d097f2188dff6617b0f00f7c43">
	<path d="M60.452,667.674h268.675v218.939c0,13.008-10.546,23.553-23.536,23.553H278.68v66.678
		c0,16.934-13.506,30.656-30.178,30.656c-16.714,0-30.2-13.723-30.2-30.656v-66.678H171.3v66.678
		c0,16.934-13.533,30.656-30.204,30.656c-16.668,0-30.199-13.723-30.199-30.656v-66.678H84.01
		c-12.994,0-23.559-10.545-23.559-23.553L60.452,667.674L60.452,667.674z M7.801,665.887c-16.842,0-30.483,13.854-30.483,30.956
		v120.984c0,17.083,13.642,30.962,30.483,30.962c16.845,0,30.483-13.879,30.483-30.962V696.843
		C38.285,679.74,24.646,665.887,7.801,665.887z M329.127,645.61H60.452c3.316-38.277,28.146-71.215,63.89-90.288l-25.545-37.508
		c-3.445-5.059-2.146-11.961,2.923-15.403c5.062-3.445,11.95-2.135,15.412,2.919l27.842,40.909
		c15.437-5.337,32.193-8.402,49.816-8.402c17.645,0,34.401,3.065,49.837,8.41l27.842-40.902c3.42-5.067,10.33-6.378,15.392-2.934
		c5.067,3.443,6.369,10.346,2.923,15.403l-25.524,37.511C301,574.383,325.812,607.323,329.127,645.61z M152.983,593.602
		c0-8.209-6.647-14.868-14.853-14.868c-8.226,0-14.873,6.659-14.873,14.868c0,8.204,6.668,14.858,14.873,14.858
		S152.983,601.806,152.983,593.602z M268.204,593.602c0-8.209-6.671-14.868-14.874-14.868c-8.226,0-14.853,6.659-14.853,14.868
		c0,8.204,6.627,14.858,14.853,14.858C261.535,608.46,268.204,601.806,268.204,593.602z M381.799,665.844
		c-16.824,0-30.505,13.875-30.505,30.978v121.029c0,17.103,13.681,30.981,30.505,30.981c16.845,0,30.46-13.878,30.46-30.981V696.821
		C412.26,679.719,398.644,665.844,381.799,665.844z"/>
</g>
</svg>
