<?xml version="1.0" encoding="utf-8"?>
<!-- Generator: Adobe Illustrator 16.0.4, SVG Export Plug-In . SVG Version: 6.00 Build 0)  -->
<!DOCTYPE svg PUBLIC "-//W3C//DTD SVG 1.1//EN" "http://www.w3.org/Graphics/SVG/1.1/DTD/svg11.dtd">
<svg version="1.1"
	 id="Layer_1" xmlns:inkscape="http://www.inkscape.org/namespaces/inkscape" xmlns:sodipodi="http://sodipodi.sourceforge.net/DTD/sodipodi-0.dtd" xmlns:svg="http://www.w3.org/2000/svg" xmlns:rdf="http://www.w3.org/1999/02/22-rdf-syntax-ns#" xmlns:cc="http://creativecommons.org/ns#" xmlns:dc="http://purl.org/dc/elements/1.1/" inkscape:version="0.48.1 " sodipodi:docname="AJAX.svg"
	 xmlns="http://www.w3.org/2000/svg" xmlns:xlink="http://www.w3.org/1999/xlink" x="0px" y="0px" width="512px" height="512px"
	 viewBox="0 0 512 512" enable-background="new 0 0 512 512" xml:space="preserve">
<sodipodi:namedview  id="namedview51" objecttolerance="10" bordercolor="#666666" borderopacity="1" pagecolor="#ffffff" gridtolerance="10" guidetolerance="10" showgrid="false" fit-margin-top="0" fit-margin-left="0" inkscape:zoom="3.0374886" inkscape:cx="159.9751" inkscape:cy="43.993248" inkscape:current-layer="Layer_1" inkscape:window-maximized="1" inkscape:window-y="-8" inkscape:window-x="-8" fit-margin-bottom="0" fit-margin-right="0" inkscape:window-height="1004" inkscape:window-width="1280" inkscape:pageshadow="2" inkscape:pageopacity="0">
	</sodipodi:namedview>
<g id="g27">
	<path id="path29" inkscape:connector-curvature="0" d="M165.485,126.173c0-16.848-10.308-38.173-53.662-38.173
		c-17.805,0-66.769,0-66.769,0l-18.976,87.801c0,0,36.078,0,69.593,0C150.009,175.801,165.485,150.083,165.485,126.173z"/>
	<path id="path31" inkscape:connector-curvature="0" d="M345.316,126.173c0-16.848-10.295-38.173-53.637-38.173
		c-17.804,0-66.768,0-66.768,0l-18.963,87.787c0,0,36.065,0,69.553,0C329.867,175.801,345.316,150.083,345.316,126.173z"/>
	<path id="path33" inkscape:connector-curvature="0" d="M141.406,258.311c0-16.84-10.321-38.219-53.675-38.219
		c-17.792,0-66.755,0-66.755,0L2,307.945c0,0,36.079,0,69.566,0C125.918,307.945,141.406,282.156,141.406,258.311z"/>
	<path id="path35" inkscape:connector-curvature="0" d="M321.24,258.311c0-16.84-10.336-38.219-53.65-38.219
		c-17.817,0-66.755,0-66.755,0l-19.002,87.854c0,0,36.078,0,69.592,0C305.789,307.945,321.24,282.156,321.24,258.311z"/>
	<path id="path37" inkscape:connector-curvature="0" d="M509.374,204.72c0-16.854-10.321-38.22-53.636-38.22
		c-17.818,0-66.756,0-66.756,0l-19.016,87.841c0,0,36.104,0,69.579,0C493.913,254.341,509.374,228.617,509.374,204.72z"/>
	<path id="path39" inkscape:connector-curvature="0" d="M483.448,342.304c0-16.859-10.31-38.172-53.649-38.172
		c-17.791,0-66.755,0-66.755,0l-18.976,87.806c0,0,36.052,0,69.565,0C467.986,391.938,483.448,366.142,483.448,342.304z"/>
	<path id="path41" inkscape:connector-curvature="0" d="M295.391,395.91c0-16.936-10.283-38.293-53.598-38.293
		c-17.844,0-66.807,0-66.807,0l-18.977,87.842c0,0,36.078,0,69.566,0C279.941,445.485,295.391,419.752,295.391,395.91z"/>
</g>
</svg>
