<?xml version="1.0" encoding="utf-8"?>
<!-- Generator: Adobe Illustrator 16.0.4, SVG Export Plug-In . SVG Version: 6.00 Build 0)  -->
<!DOCTYPE svg PUBLIC "-//W3C//DTD SVG 1.1//EN" "http://www.w3.org/Graphics/SVG/1.1/DTD/svg11.dtd">
<svg version="1.1" id="Layer_1" xmlns="http://www.w3.org/2000/svg" xmlns:xlink="http://www.w3.org/1999/xlink" x="0px" y="0px"
	 width="512px" height="512px" viewBox="0 0 512 512" enable-background="new 0 0 512 512" xml:space="preserve">
<g id="_x37_935ec95c421cee6d86eb22ecd114eed">
	<path d="M249.364,126.652c-5.392-29.39,8.506-59.636,25.241-80.02C293.05,24.143,324.702,6.896,351.753,5
		c4.569,30.813-8.007,60.836-24.56,82.072C309.437,109.886,278.906,127.578,249.364,126.652z M408.028,233.148
		c8.37-23.352,24.951-44.362,50.675-58.538c-25.994-32.439-62.492-51.272-96.935-51.272c-45.569,0-64.837,21.711-96.489,21.711
		c-32.604,0-57.34-21.711-96.812-21.711c-38.706,0-79.907,23.591-106.037,63.882c-9.607,14.893-16.115,33.394-19.665,54.002
		c-9.849,57.811,4.863,133.108,48.749,199.969c21.337,32.443,49.779,68.986,86.935,69.305c33.099,0.323,42.489-21.162,87.296-21.384
		c44.874-0.255,53.378,21.606,86.432,21.291c37.166-0.313,67.176-40.756,88.513-73.194c15.194-23.279,20.939-35.037,32.754-61.356
		C413.37,353.199,388.664,287.002,408.028,233.148z"/>
</g>
</svg>
