<?xml version="1.0" encoding="utf-8"?>
<!-- Generator: Adobe Illustrator 16.0.4, SVG Export Plug-In . SVG Version: 6.00 Build 0)  -->
<!DOCTYPE svg PUBLIC "-//W3C//DTD SVG 1.1//EN" "http://www.w3.org/Graphics/SVG/1.1/DTD/svg11.dtd">
<svg version="1.1"
	 id="svg2" xmlns:svg="http://www.w3.org/2000/svg" xmlns:rdf="http://www.w3.org/1999/02/22-rdf-syntax-ns#" xmlns:cc="http://creativecommons.org/ns#" xmlns:dc="http://purl.org/dc/elements/1.1/"
	 xmlns="http://www.w3.org/2000/svg" xmlns:xlink="http://www.w3.org/1999/xlink" x="0px" y="0px" width="512px" height="512px"
	 viewBox="0 0 512 512" enable-background="new 0 0 512 512" xml:space="preserve">
<g id="layer1" transform="translate(0,-817.36218)">
	<g id="g3244" transform="matrix(0.78491286,0,0,0.78491286,-972.12018,-72.845919)">
		<path id="path7-0-5" d="M1587.416,1375.684l-0.413,399.531l-101.385-34.816l-0.713-467.542l129.411,36.124
			c82.838,23.507,133.53,69.201,132.707,149.283c-0.824,93.137-44.098,129.274-117.4,95.212V1380.79
			C1629.623,1355.314,1587.416,1336.713,1587.416,1375.684L1587.416,1375.684z"/>
		<path id="path9" d="M1464.232,1556.949l-15.245,4.913l-147.569,52.933c-31.065,14.243-57.013,23.459-57.177,46.67
			c0.779,29.378,46.82,43.674,114.237,54.934c35.925,7.201,72.63,2.375,104.055-4.284l0.025-55.354c0,0-58.254,22.639-72.115,24.525
			l-28.03-0.154c-20.809-0.116-30.498-13.443-9.771-20.591l111.573-42.222l0.019-61.366v-0.004H1464.232z"/>
		<path id="path9-8" d="M1726.454,1581.887c-38.742-0.127-92.396,10.431-118.992,22.803v63.093l70.134-25.646l55.553-17.662
			c57.856-9.525,80.86,10.676,24.506,27.563l-150.191,54.956l-0.183,61.183l219.437-78.946c24.215-8.443,58.274-25.493,58.355-46.45
			c-5.875-32.443-54.68-51.377-130.472-59.404c-6.798-0.699-13.631-1.137-20.414-1.34c-2.584-0.077-5.153-0.144-7.736-0.153
			L1726.454,1581.887z"/>
	</g>
</g>
</svg>
