<?xml version="1.0" encoding="utf-8"?>
<!-- Generator: Adobe Illustrator 16.0.4, SVG Export Plug-In . SVG Version: 6.00 Build 0)  -->
<!DOCTYPE svg PUBLIC "-//W3C//DTD SVG 1.1//EN" "http://www.w3.org/Graphics/SVG/1.1/DTD/svg11.dtd">
<svg version="1.1"
	 id="svg2" xmlns:inkscape="http://www.inkscape.org/namespaces/inkscape" xmlns:sodipodi="http://sodipodi.sourceforge.net/DTD/sodipodi-0.dtd" xmlns:svg="http://www.w3.org/2000/svg" xmlns:rdf="http://www.w3.org/1999/02/22-rdf-syntax-ns#" xmlns:cc="http://creativecommons.org/ns#" xmlns:dc="http://purl.org/dc/elements/1.1/" sodipodi:docname="HP_webOS_Logo.svg" inkscape:version="0.48.0 r9654"
	 xmlns="http://www.w3.org/2000/svg" xmlns:xlink="http://www.w3.org/1999/xlink" x="0px" y="0px" width="512px" height="512px"
	 viewBox="0 0 512 512" enable-background="new 0 0 512 512" xml:space="preserve">
<sodipodi:namedview  inkscape:cy="62.010462" inkscape:cx="246.29205" inkscape:zoom="0.98994949" fit-margin-left="25" fit-margin-top="25" showgrid="false" pagecolor="#ffffff" borderopacity="1.0" bordercolor="#666666" id="base" inkscape:pageopacity="0.0" inkscape:pageshadow="2" inkscape:window-width="1757" inkscape:window-height="1018" fit-margin-right="25" inkscape:current-layer="layer1" fit-margin-bottom="25" inkscape:snap-page="false" inkscape:document-units="px" inkscape:window-y="-8" inkscape:window-maximized="1" inkscape:window-x="-8">
	</sodipodi:namedview>
<path id="path3068" inkscape:connector-curvature="0" d="M67.156,195.112c-1.655-2.037-45.143-110.682-45.162-112.83
	c-0.004-0.698-0.315-1.748-0.686-2.336c-1.146-1.814,0.602-2.176,10.599-2.185l9.538-0.011l2.689,6.711
	c8.364,20.871,22.98,59.123,24.693,64.622c1.095,3.517,2.212,6.126,2.481,5.804c0.268-0.322,1.57-3.526,2.889-7.121
	c1.32-3.591,4.781-11.752,7.688-18.139c23.732-52.086,24.701-54.055,26.568-54.055c0.333,0,1.876,2.527,3.43,5.624
	c6.376,12.695,29.092,61.944,31.3,67.856c1.308,3.502,2.51,6.232,2.675,6.068c0.164-0.166,1.944-5.152,3.954-11.083
	c3.45-10.173,22.786-60.202,24.779-64.112c0.908-1.779,1.107-1.819,10.512-2.017c9.292-0.194,9.588-0.156,9.588,1.307
	c0,1.279-39.391,99.699-44.768,111.855c-1.758,3.975-3.231,5.41-4.65,4.532c-1.024-0.631-3.488-5.746-15.711-32.6
	c-15.265-33.543-17.047-37.593-19.379-44.064c-2.086-5.796-2.773-6.353-3.622-2.924c-0.705,2.849-6.792,17.169-11.646,27.398
	c-2.272,4.787-7.361,15.644-11.306,24.128C70.355,196.035,69.319,197.768,67.156,195.112L67.156,195.112z M257.092,193.799
	c-11.792-3.061-23.839-10.502-31.391-19.387c-4.377-5.148-9.485-15.347-11.533-23.016c-2.1-7.875-2.272-22.296-0.356-30.111
	c1.853-7.565,7.558-19.019,12.349-24.79c16.064-19.357,42.79-26.463,66.773-17.761c16.95,6.151,29.546,20.878,34.54,40.374
	c1.787,6.978,2.951,19.13,2.069,21.586l-0.589,1.633h-47.86c-26.383,0-48.039,0.284-48.254,0.634
	c-0.658,1.062,1.662,8.867,4.287,14.435c3.505,7.429,8.643,12.63,15.946,16.144c7.825,3.763,16.151,5.394,24.679,4.836
	c10.868-0.717,19.439-3.937,28.284-10.629c2.651-2.007,5.058-3.65,5.346-3.65c1.075,0,11.009,10.605,11.009,11.752
	c0,0.658-1.713,2.65-3.811,4.43c-7.891,6.694-16.282,11.006-26.543,13.628C284.292,195.885,264.896,195.825,257.092,193.799
	L257.092,193.799z M308.31,125.363c0.593-1.545-1.746-9.655-4.167-14.452c-9.963-19.733-40.805-24.11-58.328-8.275
	c-4.203,3.799-7.802,9.485-10.222,16.149c-3.07,8.462-7.178,7.58,35.306,7.58C301.661,126.363,307.989,126.194,308.31,125.363
	L308.31,125.363z M411.272,193.952c-9.499-2.842-16.744-7.624-23.868-15.761c-3.738-4.269-4.903-5.216-5.264-4.279
	c-0.256,0.663-0.246,4.775,0.021,9.137c0.674,11.101,0.948,10.793-9.584,10.793c-5.673,0-8.828-0.295-9.407-0.872
	c-1.266-1.263-1.266-187.093,0-188.357c0.576-0.578,3.709-0.871,9.287-0.871s8.71,0.294,9.286,0.871
	c0.66,0.66,0.872,12.045,0.872,46.798c0,25.263,0.139,45.928,0.312,45.928c0.173,0,3.522-3.244,7.447-7.208
	c5.821-5.883,8.135-7.683,12.566-9.773c9.953-4.693,20.096-6.312,30.082-4.791c18.458,2.81,32.688,13.066,41.353,29.807
	c5.641,10.891,7.991,23.438,6.816,36.387c-0.818,9.041-2.354,14.388-6.607,23.062c-3.301,6.725-4.551,8.426-10.669,14.511
	c-7.561,7.522-12.312,10.686-20.475,13.632c-4.764,1.722-6.496,1.939-16.569,2.103C417.771,195.219,414.797,195.003,411.272,193.952
	L411.272,193.952z M432.289,176.041c12.059-3.141,20.589-11.543,25.355-24.977c2.023-5.696,2.201-6.962,2.191-15.633
	c-0.01-8.4-0.228-10.058-2.002-15.151c-4.999-14.344-13.985-22.562-27.896-25.51c-9.144-1.938-18.479-0.766-26.919,3.379
	c-14.847,7.292-23.566,27.251-20.159,46.146c2.856,15.83,13.458,27.76,28.195,31.73
	C416.217,177.412,426.993,177.421,432.289,176.041L432.289,176.041z M128.535,503.24C62.79,489.085,20.791,436.056,21.002,367.455
	c0.074-23.496,4.316-42.352,14.026-62.294c16.031-32.931,43.964-56.738,79.991-68.184c14.764-4.69,23.094-5.8,42.994-5.745
	c19.535,0.06,31.562,1.918,47.324,7.311c45.135,15.446,78.979,55.696,86.772,103.191c3.688,22.455,3.092,41.551-1.963,62.694
	c-11.405,47.749-48.017,84.582-96.9,97.481c-9.02,2.382-12.299,2.685-32.662,2.998C141.045,505.216,136.662,504.987,128.535,503.24
	L128.535,503.24z M180.409,487.193c35.706-6.297,65.844-28.866,82.275-61.612c4.857-9.69,9.783-24.669,11.666-35.489
	c1.902-10.943,1.659-34.51-0.465-45.483c-4.932-25.481-16.635-47.875-33.801-64.674c-15.999-15.658-38.089-26.751-61.5-30.878
	c-10.908-1.926-33.462-1.681-44.561,0.479c-41.219,8.021-74.701,37.501-88.129,77.578c-4.33,12.922-6.194,25.221-6.194,40.862
	c0,22.141,4.094,39.656,13.786,58.952C76.44,472.622,126.966,496.613,180.409,487.193L180.409,487.193z M373.022,503.188
	c-18.712-4.888-31.512-11.965-43.46-24.035c-7.846-7.926-18.275-22.687-18.275-25.858c0-1.579,1.568-2.876,6.063-5.023
	c3.333-1.59,6.561-2.576,7.184-2.199c0.619,0.388,3.262,3.996,5.862,8.024c8.896,13.748,22.428,25.535,34.93,30.431
	c35.816,14.027,78.573,2.849,91.544-23.935c7.716-15.936,7.229-36.393-1.247-52.319c-5.821-10.934-21.218-23.369-40.8-32.951
	c-5.166-2.527-18.888-9.24-30.485-14.92c-31.122-15.229-43.688-25.617-51.166-42.327c-11.405-25.447-3.852-58.087,16.958-73.368
	c11.988-8.799,23.733-12.785,40.383-13.697c21.238-1.166,41.188,5.567,55.358,18.685c7.751,7.183,15.625,16.817,15.625,19.133
	c0,1.501-9.386,9.129-11.232,9.129c-0.549,0-3.076-2.708-5.622-6.015c-13.351-17.353-26.339-24.337-47.443-25.521
	c-22.851-1.287-40.959,8.024-48.421,24.899c-6.964,15.753-4.519,36.763,5.804,49.821c7.554,9.554,14.83,13.808,65.761,38.413
	c17.21,8.314,28.121,15.541,37.555,24.876c8.657,8.562,13.743,16.611,17.581,27.787c3.674,10.702,4.629,29.97,2.04,41.038
	c-5.77,24.633-24.641,42.692-51.825,49.588c-8.461,2.145-12.016,2.46-27.339,2.412C384.311,505.216,379.177,504.792,373.022,503.188
	z M516.273,139.183c-0.01-1.49,0.077-2.154,0.182-1.476c0.103,0.679,0.104,1.898,0.008,2.709c-0.102,0.812-0.184,0.257-0.187-1.233
	H516.273z"/>
</svg>
